<svg width="400" height="400" viewBox="0 0 400 400" xmlns="http://www.w3.org/2000/svg">
  <!-- Background Grid -->
  <pattern id="grid" width="20" height="20" patternUnits="userSpaceOnUse">
    <path d="M 20 0 L 0 0 0 20" fill="none" stroke="#e0e0e0" stroke-width="1"/>
  </pattern>
  <rect width="400" height="400" fill="url(#grid)"/>
  
  <!-- Eye Outline -->
  <path d="M 200,140 C 280,140 340,180 380,200 C 340,220 280,260 200,260 C 120,260 60,220 20,200 C 60,180 120,140 200,140 Z" 
        fill="#f0f0f0" stroke="#6b6e7b" stroke-width="8"/>
  
  <!-- Circuit Lines -->
  <g stroke="#e67e22" stroke-width="8" fill="none">
    <!-- Top Left Lines -->
    <path d="M 60,140 L 60,80 L 100,40"/>
    <path d="M 100,150 L 100,70"/>
    <path d="M 140,140 L 140,100 L 180,60"/>
    
    <!-- Top Right Lines -->
    <path d="M 260,140 L 260,100 L 300,60"/>
    <path d="M 300,150 L 300,90 L 340,50"/>
    <path d="M 340,140 L 340,100 L 380,60"/>
    
    <!-- Bottom Left Lines -->
    <path d="M 60,260 L 60,320 L 100,360"/>
    <path d="M 100,250 L 100,310"/>
    <path d="M 140,260 L 140,300 L 180,340"/>
    
    <!-- Bottom Right Lines -->
    <path d="M 260,260 L 260,300 L 300,340"/>
    <path d="M 300,250 L 300,330"/>
    <path d="M 340,260 L 340,300 L 380,340"/>
  </g>
  
  <!-- Nodes -->
  <circle cx="100" cy="70" r="12" fill="#6b6e7b"/>
  <circle cx="300" cy="90" r="12" fill="#6b6e7b"/>
  <circle cx="380" cy="60" r="12" fill="#6b6e7b"/>
  <circle cx="100" cy="310" r="12" fill="#6b6e7b"/>
  <circle cx="180" cy="340" r="12" fill="#6b6e7b"/>
  <circle cx="380" cy="340" r="12" fill="#6b6e7b"/>
  
  <!-- Shining Effect -->
  <line x1="380" y1="60" x2="390" y2="50" stroke="#6b6e7b" stroke-width="3"/>
  <line x1="380" y1="60" x2="390" y2="60" stroke="#6b6e7b" stroke-width="3"/>
  <line x1="380" y1="60" x2="380" y2="50" stroke="#6b6e7b" stroke-width="3"/>
  
  <!-- Central Eye/CPU -->
  <circle cx="200" cy="200" r="50" fill="#e67e22"/>
  <rect x="175" y="175" width="50" height="50" fill="white" stroke="#6b6e7b" stroke-width="4"/>
  
  <!-- CPU Pins -->
  <line x1="180" y1="175" x2="180" y2="165" stroke="#6b6e7b" stroke-width="4"/>
  <line x1="190" y1="175" x2="190" y2="165" stroke="#6b6e7b" stroke-width="4"/>
  <line x1="200" y1="175" x2="200" y2="165" stroke="#6b6e7b" stroke-width="4"/>
  <line x1="210" y1="175" x2="210" y2="165" stroke="#6b6e7b" stroke-width="4"/>
  
  <line x1="180" y1="225" x2="180" y2="235" stroke="#6b6e7b" stroke-width="4"/>
  <line x1="190" y1="225" x2="190" y2="235" stroke="#6b6e7b" stroke-width="4"/>
  <line x1="200" y1="225" x2="200" y2="235" stroke="#6b6e7b" stroke-width="4"/>
  <line x1="210" y1="225" x2="210" y2="235" stroke="#6b6e7b" stroke-width="4"/>
  
  <line x1="175" y1="180" x2="165" y2="180" stroke="#6b6e7b" stroke-width="4"/>
  <line x1="175" y1="190" x2="165" y2="190" stroke="#6b6e7b" stroke-width="4"/>
  <line x1="175" y1="200" x2="165" y2="200" stroke="#6b6e7b" stroke-width="4"/>
  <line x1="175" y1="210" x2="165" y2="210" stroke="#6b6e7b" stroke-width="4"/>
  
  <line x1="225" y1="180" x2="235" y2="180" stroke="#6b6e7b" stroke-width="4"/>
  <line x1="225" y1="190" x2="235" y2="190" stroke="#6b6e7b" stroke-width="4"/>
  <line x1="225" y1="200" x2="235" y2="200" stroke="#6b6e7b" stroke-width="4"/>
  <line x1="225" y1="210" x2="235" y2="210" stroke="#6b6e7b" stroke-width="4"/>
  
  <!-- Iris Highlight -->
  <circle cx="175" cy="185" r="10" fill="white"/>
</svg>