<svg width="800" height="800" viewBox="0 0 800 800" fill="none" xmlns="http://www.w3.org/2000/svg">
<g clip-path="url(#clip0_2_3)">
<rect width="800" height="800" fill="#151515"/>
<ellipse cx="397.769" cy="406.298" rx="326.133" ry="222.215" fill="#202020"/>
<ellipse cx="400" cy="388.556" rx="202.899" ry="204.572" fill="url(#paint0_radial_2_3)"/>
<path d="M748.735 392.175C636.972 56.0271 163.084 55.8562 51.2653 392.175C49.5782 397.253 49.5782 402.747 51.2653 407.825C163.028 743.973 636.918 744.144 748.735 407.825C750.422 402.749 750.422 397.253 748.735 392.175ZM100.282 400.001C132.491 310.741 201.187 242.387 285.96 209.724C222.164 248.738 179.446 319.433 179.446 400.001C179.446 480.568 222.164 551.263 285.963 590.278C201.189 557.616 132.494 489.261 100.282 400.001ZM228.284 400.001C228.284 304.535 305.315 226.869 399.999 226.869C494.682 226.869 571.715 304.536 571.715 400.001C571.715 495.465 494.685 573.134 400 573.134C305.315 573.134 228.284 495.467 228.284 400.001ZM514.039 590.276C577.835 551.261 620.555 480.568 620.555 399.999C620.555 319.431 577.837 248.737 514.039 209.722C598.813 242.384 667.507 310.739 699.718 399.999C667.506 489.261 598.81 557.616 514.039 590.276Z" fill="#79B975"/>
<path d="M400 422.027C412.066 422.027 421.846 412.166 421.846 400.001C421.846 387.836 412.066 377.974 400 377.974C387.935 377.974 378.154 387.836 378.154 400.001C378.154 412.166 387.935 422.027 400 422.027Z" fill="#79B975"/>
<path d="M323.276 422.027C335.341 422.027 345.122 412.166 345.122 400.001C345.122 387.836 335.341 377.974 323.276 377.974C311.211 377.974 301.43 387.836 301.43 400.001C301.43 412.166 311.211 422.027 323.276 422.027Z" fill="#79B975"/>
<path d="M476.724 422.027C488.789 422.027 498.57 412.166 498.57 400.001C498.57 387.836 488.789 377.974 476.724 377.974C464.659 377.974 454.878 387.836 454.878 400.001C454.878 412.166 464.659 422.027 476.724 422.027Z" fill="#79B975"/>
</g>
<defs>
<radialGradient id="paint0_radial_2_3" cx="0" cy="0" r="1" gradientUnits="userSpaceOnUse" gradientTransform="translate(400 388.556) rotate(90) scale(204.572 202.899)">
<stop offset="0.46" stop-color="#282828"/>
<stop offset="1"/>
</radialGradient>
<clipPath id="clip0_2_3">
<rect width="800" height="800" rx="200" fill="white"/>
</clipPath>
</defs>
</svg>
